<svg width="520" height="301" viewBox="0 0 520 301" fill="none" xmlns="http://www.w3.org/2000/svg">
<g clip-path="url(#clip0_11_631)">
<path d="M516.635 300.222H227.09C226.198 300.221 225.342 299.834 224.711 299.147C224.081 298.46 223.726 297.528 223.724 296.557V3.6657C223.726 2.69389 224.081 1.76224 224.711 1.07506C225.342 0.387885 226.198 0.00127189 227.09 0H516.635C517.527 0.00127189 518.382 0.387885 519.013 1.07506C519.644 1.76224 519.999 2.69389 520 3.6657V296.556C519.999 297.528 519.644 298.46 519.013 299.147C518.382 299.834 517.527 300.221 516.635 300.222ZM227.09 1.46339C226.555 1.46466 226.043 1.69659 225.665 2.10843C225.286 2.52027 225.073 3.07847 225.072 3.66089V296.556C225.073 297.138 225.286 297.697 225.665 298.108C226.043 298.52 226.555 298.752 227.09 298.753H516.635C517.169 298.752 517.682 298.52 518.06 298.109C518.438 297.697 518.651 297.138 518.652 296.556V3.6657C518.651 3.08328 518.438 2.52508 518.06 2.11324C517.682 1.7014 517.169 1.46947 516.635 1.4682L227.09 1.46339Z" fill="#E6E6E6"/>
<path d="M363.905 76.1086C363.299 76.1086 362.718 76.3709 362.289 76.8376C361.861 77.3043 361.62 77.9373 361.62 78.5973C361.62 79.2573 361.861 79.8903 362.289 80.3571C362.718 80.8238 363.299 81.086 363.905 81.086H489.274C489.88 81.086 490.461 80.8238 490.889 80.3571C491.318 79.8903 491.558 79.2573 491.558 78.5973C491.558 77.9373 491.318 77.3043 490.889 76.8376C490.461 76.3709 489.88 76.1086 489.274 76.1086H363.905Z" fill="#E6E6E6"/>
<path d="M363.905 91.042C363.299 91.042 362.718 91.3042 362.289 91.7709C361.861 92.2376 361.62 92.8706 361.62 93.5307C361.62 94.1907 361.861 94.8237 362.289 95.2904C362.718 95.7571 363.299 96.0193 363.905 96.0193H427.908C428.514 96.0193 429.095 95.7571 429.524 95.2904C429.952 94.8237 430.193 94.1907 430.193 93.5307C430.193 92.8706 429.952 92.2376 429.524 91.7709C429.095 91.3042 428.514 91.042 427.908 91.042H363.905Z" fill="#E6E6E6"/>
<path d="M254.329 163.322C253.723 163.322 253.142 163.584 252.713 164.051C252.285 164.517 252.044 165.15 252.044 165.81C252.044 166.47 252.285 167.103 252.713 167.57C253.142 168.037 253.723 168.299 254.329 168.299H489.396C490.002 168.299 490.583 168.037 491.011 167.57C491.44 167.103 491.68 166.47 491.68 165.81C491.68 165.15 491.44 164.517 491.011 164.051C490.583 163.584 490.002 163.322 489.396 163.322H254.329Z" fill="#E6E6E6"/>
<path d="M254.329 178.255C253.723 178.255 253.142 178.518 252.713 178.984C252.285 179.451 252.044 180.084 252.044 180.744C252.044 181.404 252.285 182.037 252.713 182.504C253.142 182.971 253.723 183.233 254.329 183.233H428.03C428.636 183.233 429.217 182.971 429.646 182.504C430.074 182.037 430.315 181.404 430.315 180.744C430.315 180.084 430.074 179.451 429.646 178.984C429.217 178.518 428.636 178.255 428.03 178.255H254.329Z" fill="#E6E6E6"/>
<path d="M254.329 192.851C253.723 192.851 253.142 193.113 252.713 193.58C252.285 194.046 252.044 194.679 252.044 195.339C252.044 196 252.285 196.633 252.713 197.099C253.142 197.566 253.723 197.828 254.329 197.828H489.396C490.002 197.828 490.583 197.566 491.011 197.099C491.44 196.633 491.68 196 491.68 195.339C491.68 194.679 491.44 194.046 491.011 193.58C490.583 193.113 490.002 192.851 489.396 192.851H254.329Z" fill="#E6E6E6"/>
<path d="M254.329 207.784C253.723 207.784 253.142 208.046 252.713 208.513C252.285 208.98 252.044 209.613 252.044 210.273C252.044 210.933 252.285 211.566 252.713 212.033C253.142 212.499 253.723 212.762 254.329 212.762H428.03C428.636 212.762 429.217 212.499 429.646 212.033C430.074 211.566 430.315 210.933 430.315 210.273C430.315 209.613 430.074 208.98 429.646 208.513C429.217 208.046 428.636 207.784 428.03 207.784H254.329Z" fill="#E6E6E6"/>
<path d="M332.221 128.542H150.483C149.59 128.541 148.735 128.155 148.104 127.467C147.473 126.78 147.118 125.848 147.117 124.877V38.0019C147.118 37.03 147.473 36.0983 148.104 35.411C148.735 34.7238 149.59 34.3373 150.483 34.3362H332.221C333.113 34.3373 333.969 34.7238 334.6 35.411C335.231 36.0983 335.585 37.03 335.586 38.0019V124.877C335.585 125.848 335.231 126.78 334.6 127.467C333.969 128.155 333.113 128.541 332.221 128.542Z" fill="#FF9C72"/>
<path d="M487.942 265.886H419.054C418.162 265.885 417.307 265.498 416.676 264.811C416.045 264.124 415.69 263.192 415.689 262.22V250.198C415.69 249.226 416.045 248.294 416.676 247.607C417.307 246.92 418.162 246.533 419.054 246.532H487.942C488.834 246.533 489.69 246.92 490.321 247.607C490.952 248.294 491.307 249.226 491.308 250.198V262.22C491.307 263.192 490.952 264.124 490.321 264.811C489.69 265.498 488.834 265.885 487.942 265.886Z" fill="#FF9C72"/>
<path d="M79.7113 147.033C76.7426 144.619 75.8713 140.108 77.7653 136.957C77.9535 136.649 78.1663 136.359 78.4012 136.091L78.591 71.9109L87.3494 73.692L87.7342 136.815C89.7296 139.336 90.1325 143.011 88.5163 145.699C86.6223 148.85 82.6802 149.447 79.7113 147.033Z" fill="#FFB8B8"/>
<path d="M125.26 290.689L134.289 290.688L138.585 252.752L125.258 252.753L125.26 290.689Z" fill="#FFB8B8"/>
<path d="M122.956 287.477L140.739 287.477H140.739C143.745 287.477 146.627 288.777 148.752 291.092C150.877 293.407 152.071 296.546 152.072 299.82V300.221L122.957 300.222L122.956 287.477Z" fill="#2F2E41"/>
<path d="M41.2983 290.689L50.3282 290.688L54.6234 252.752L41.297 252.753L41.2983 290.689Z" fill="#FFB8B8"/>
<path d="M38.9953 287.477L56.7774 287.477H56.7781C59.7835 287.477 62.6658 288.777 64.7909 291.092C66.9161 293.407 68.1101 296.546 68.1103 299.82V300.221L38.9958 300.222L38.9953 287.477Z" fill="#2F2E41"/>
<path d="M124.733 280.093L123.976 275.147C123.199 274.851 122.538 274.273 122.104 273.511C121.292 272.112 121.162 270.144 121.719 267.659L115.627 211.618L83.8203 175.672L63.4156 229.281L55.3381 271.703V277.832L39.2108 280.087L39.9447 274.31C39.3278 274.022 38.8137 273.523 38.4803 272.889C37.5538 271.209 37.5665 268.605 38.5179 265.151L38.5592 265.001L38.5065 264.485C38.4696 264.123 38.712 229.473 48.1688 212.305L57.6399 160.181C57.3939 159.447 56.1797 155.173 58.4065 147.951C60.6044 140.824 66.751 129.343 83.553 115.118L83.6107 115.07L83.6823 115.053C83.8684 115.011 102.4 110.998 111.984 124.65L112.049 124.742V124.858C112.049 125.702 112.032 145.343 110.606 149.701L133.349 195.25C133.791 195.761 137.767 200.762 136.355 213.911L140.029 258.732C140.449 259.606 144.252 267.838 140.061 271.097L140.812 276.757L124.733 280.093Z" fill="#2F2E41"/>
<path d="M86.6875 91.7453C82.4173 91.7453 76.7426 90.1013 73.269 82.5236L73.2007 82.3747L81.7584 62.6151C82.8671 60.0551 84.8516 58.0694 87.2872 57.0829C89.7229 56.0964 92.4163 56.1873 94.7912 57.3363C97.166 58.4853 99.0338 60.6011 99.9947 63.231C100.956 65.8609 100.934 68.796 99.9332 71.4083L92.5345 90.7279L92.4057 90.7799C90.5579 91.4264 88.6282 91.7522 86.6875 91.7453Z" fill="#FF9C72"/>
<path d="M110.393 130.922L83.4144 117.045L87.1228 67.765L93.8835 58.7646L95.1932 58.4591C101.212 57.0554 107.466 57.4327 113.306 59.5519L113.435 59.5985L124.54 85.4031C124.609 85.5318 132.618 100.933 121.547 109.053L110.393 130.922Z" fill="#FF9C72"/>
<path d="M147.481 115.216C147.159 115.363 146.849 115.536 146.552 115.736L118.123 101.571L117.394 93.3367L105.842 92.9114L105.832 107.625C105.831 108.814 106.185 109.971 106.839 110.922C107.493 111.873 108.413 112.568 109.46 112.901L143.598 123.769C143.949 125.182 144.686 126.445 145.712 127.39C146.738 128.335 148.003 128.918 149.341 129.061C150.678 129.204 152.023 128.9 153.198 128.189C154.373 127.478 155.321 126.395 155.917 125.083C156.513 123.771 156.728 122.293 156.533 120.845C156.339 119.397 155.744 118.047 154.828 116.976C153.912 115.905 152.719 115.163 151.407 114.848C150.094 114.534 148.725 114.663 147.481 115.216Z" fill="#FFB8B8"/>
<path d="M112.709 96.8507C109.469 96.8507 105.813 95.6305 102.304 91.8083L102.196 91.6906L104.567 69.9959C104.874 67.1852 106.179 64.617 108.203 62.8409C110.226 61.0648 112.807 60.2218 115.394 60.4922C117.981 60.7627 120.368 62.1252 122.044 64.2881C123.72 66.4511 124.553 69.2428 124.363 72.0658L122.964 92.943L122.857 93.0366C122.788 93.0966 118.389 96.8507 112.709 96.8507Z" fill="#FF9C72"/>
<path d="M121.378 41.5974C126.17 32.0489 122.948 20.0769 114.182 14.8572C105.416 9.63752 94.4247 13.1467 89.6327 22.6952C84.8407 32.2438 88.0624 44.2158 96.8285 49.4355C105.595 54.6552 116.586 51.146 121.378 41.5974Z" fill="#FFB8B8"/>
<path d="M123.915 21.7065C123.018 16.0198 118.827 11.3057 113.834 9.37689C108.841 7.44805 103.211 8.07533 98.3224 10.2965C97.5082 10.6681 96.7121 11.085 95.9373 11.5457C94.1503 7.83544 89.7691 5.68357 85.762 5.91582C80.921 6.19639 76.5491 8.98648 72.3446 11.616C68.1402 14.2456 63.6285 16.8619 58.7817 16.7394C50.0228 16.5183 43.5065 7.67303 35.0841 5.04436C31.3347 3.87421 27.3452 3.99258 23.6599 5.38332C19.9746 6.77405 16.773 9.36942 14.4918 12.8153C12.2107 16.2612 10.9611 20.3898 10.9137 24.6378C10.8662 28.8858 12.0231 33.0463 14.2266 36.5517C17.8203 29.5367 26.2596 27.1674 33.5824 28.1224C40.9049 29.0774 47.7297 32.5737 54.9035 34.436C62.0777 36.2984 70.3862 36.2184 75.9429 30.937C79.0952 27.9413 80.9459 23.6595 83.69 20.2203C85.5462 17.894 88.1887 15.9298 90.8887 15.4674C88.2293 18.0762 86.1989 21.3567 84.9761 25.0204C82.8111 31.7207 83.9686 39.7655 88.4599 44.9155C93.2748 50.4368 100.832 51.9082 107.823 51.8189L107.969 51.657C105.828 48.1673 104.139 43.3284 106.496 40.008C108.822 36.7305 113.41 37.2134 116.973 35.7631C121.935 33.7431 124.813 27.3932 123.915 21.7065Z" fill="#2F2E41"/>
<path d="M172.743 301H0.63045C0.463244 301 0.302886 300.928 0.184654 300.799C0.0664217 300.67 0 300.495 0 300.313C0 300.131 0.0664217 299.956 0.184654 299.828C0.302886 299.699 0.463244 299.626 0.63045 299.626H172.743C172.911 299.626 173.071 299.699 173.189 299.828C173.307 299.956 173.374 300.131 173.374 300.313C173.374 300.495 173.307 300.67 173.189 300.799C173.071 300.928 172.911 301 172.743 301Z" fill="#CCCCCC"/>
<path d="M233.197 64.8057C232.408 64.8084 231.769 65.9248 231.771 67.2993C231.772 68.6699 232.41 69.7803 233.197 69.783H300.573C301.362 69.7802 302.001 68.6638 301.999 67.2894C301.998 65.9188 301.36 64.8084 300.573 64.8057H233.197Z" fill="white"/>
<path d="M233.197 79.2266C232.408 79.2293 231.769 80.3457 231.771 81.7201C231.772 83.0908 232.41 84.2012 233.197 84.2039H300.573C301.362 84.2011 302.001 83.0847 301.999 81.7103C301.998 80.3397 301.36 79.2293 300.573 79.2266H233.197Z" fill="white"/>
<path d="M233.197 93.4734C232.408 93.4761 231.769 94.5925 231.771 95.967C231.772 97.3376 232.41 98.448 233.197 98.4507H262.189C262.978 98.448 263.617 97.3316 263.615 95.9571C263.614 94.5865 262.976 93.4761 262.189 93.4734H233.197Z" fill="white"/>
<path d="M198.987 101.354C209.085 101.354 217.27 92.4379 217.27 81.4392C217.27 70.4406 209.085 61.5244 198.987 61.5244C188.89 61.5244 180.704 70.4406 180.704 81.4392C180.704 92.4379 188.89 101.354 198.987 101.354Z" fill="white"/>
</g>
<defs>
<clipPath id="clip0_11_631">
<rect width="520" height="301" fill="white"/>
</clipPath>
</defs>
</svg>
